<svg aria-hidden="true" style="position: absolute; width: 0; height: 0; overflow: hidden;" version="1.1" xmlns="http://www.w3.org/2000/svg" xmlns:xlink="http://www.w3.org/1999/xlink">
<defs>
  
  <!-- HEADER ======================================-->
<!-- e-mail -->
  <symbol id="e-mail" viewBox="0 0 16 12" xmlns="http://www.w3.org/2000/svg" >
    <path d="M14.5 0h-13C.673 0 0 .628 0 1.4v8.402c0 .772.673 1.4 1.5 1.4h13c.827 0 1.5-.628 1.5-1.4V1.4c0-.772-.673-1.4-1.5-1.4zm0 .933a.53.53 0 0 1 .192.037L8 6.384 1.308.97A.529.529 0 0 1 1.5.933h13zm0 9.335h-13c-.276 0-.5-.209-.5-.466V1.956l6.672 5.398A.52.52 0 0 0 8 7.468a.52.52 0 0 0 .328-.114L15 1.956v7.846c0 .257-.224.466-.5.466z">
      </path>
  </symbol>
<!-- telephone -->
  <symbol id="telephone" viewBox="0 0 10 15"  xmlns="http://www.w3.org/2000/svg" >
    <path d="M8.5 0h-7C.673 0 0 .628 0 1.4v12.136c0 .772.673 1.4 1.5 1.4h7c.827 0 1.5-.628 1.5-1.4V1.4C10 .628 9.327 0 8.5 0zm-7 .933h7c.276 0 .5.21.5.467v9.802H1V1.4c0-.257.224-.467.5-.467zm7 13.07h-7c-.276 0-.5-.21-.5-.467v-1.4h8v1.4c0 .257-.224.466-.5.466z"></path>
    <path d="M2.354 12.739a.445.445 0 0 1 0 .66.525.525 0 0 1-.708 0 .445.445 0 0 1 0-.66.525.525 0 0 1 .708 0z" ></path>
  </symbol>

<!-- MAIN ============================================-->
<!-- section 2 -->

  <!-- antenna -->
  <symbol id="antenna" viewBox="0 0 70 70" fill="none" xmlns="http://www.w3.org/2000/svg" >
    <path d="M67.316 48.339l-18.47-18.605 2.05-10.097a4.655 4.655 0 0 0 1.66.319h.014a4.723 4.723 0 1 0-4.394-3.14l-10.85 1.325L19.628.35a1.166 1.166 0 0 0-.824-.35 1.17 1.17 0 0 0-.817.34L14.68 3.63a1.167 1.167 0 0 0 0 1.65l1.78 1.805a32.686 32.686 0 0 0 5.511 38.638c.094.09.202.161.32.213a6.77 6.77 0 0 0-.114 1.197v13.534h-14A5.84 5.84 0 0 0 2.342 66.5v2.333c0 .645.523 1.167 1.167 1.167h53.667c.644 0 1.166-.522 1.166-1.167V66.5a5.84 5.84 0 0 0-5.833-5.833h-14v-5.998c2.193.46 4.428.694 6.669.7a32.483 32.483 0 0 0 15.4-3.901l1.79 1.8c.216.221.513.347.823.35.306-.002.6-.124.817-.34l3.308-3.29a1.167 1.167 0 0 0 0-1.65zM50.925 13.635a2.333 2.333 0 1 1 1.645 3.987h-.008a2.333 2.333 0 0 1-1.633-3.987h-.004zM48.178 21.3l-1.309 6.444-2.571-2.587 3.88-3.857zm-1.325-1.973l-4.2 4.176-3.25-3.267 7.45-.909zM52.509 63a3.5 3.5 0 0 1 3.5 3.5v1.167H4.676V66.5a3.5 3.5 0 0 1 3.5-3.5h44.333zm-16.333-4.667v2.334H24.509v-2.334h11.667zM24.509 56v-8.867c0-2.83 2.617-5.133 5.833-5.133 3.217 0 5.834 2.303 5.834 5.133V56H24.509zm14-3.71v-5.157c0-4.117-3.663-7.466-8.167-7.466a8.312 8.312 0 0 0-7.177 3.907A30.34 30.34 0 0 1 18.18 8.82l40.692 40.925a30.233 30.233 0 0 1-20.363 2.544zm24.695-1.496l-1.644-1.653L18.792 6.116l-1.65-1.655 1.65-1.645L36.15 20.272c.008 0 .013.015.021.021l28.688 28.856-1.655 1.645z"
      fill="#212121"></path>
    <path d="M30.353 44.333h-.01a3.5 3.5 0 1 0-.011 7h.01a3.5 3.5 0 0 0 .01-7zm.816 4.327a1.166 1.166 0 1 1-.827-1.993 1.166 1.166 0 0 1 .817 1.993h.01z" fill="#2196F3"></path>
  </symbol>
<!-- diagram -->
  <symbol id="diagram" viewBox="0 0 70 70" fill="none" xmlns="http://www.w3.org/2000/svg" >
    <g clip-path="url(#clip0)">
      <path d="M32.65 32.735h2.331V43.23H32.65V32.735zm9.328 4.665h2.332v5.83h-2.332V37.4zm-18.657 3.498h2.332v2.332h-2.332v-2.332zm-6.996-1.167h2.332v3.499h-2.332v-3.5z" fill="#2196F3"></path>
      <path d="M3.498 61.886h55.97a3.498 3.498 0 0 0 3.499-3.498v-4.664a3.498 3.498 0 0 0-3.498-3.498h-1.166v-29.08l6.623-6.274a3.518 3.518 0 1 0-1.633-1.668l-4.99 4.73v-2.69a3.498 3.498 0 0 0-3.498-3.498H8.162a3.498 3.498 0 0 0-3.498 3.498v34.982H3.498A3.498 3.498 0 0 0 0 53.724v4.664a3.498 3.498 0 0 0 3.498 3.498zM66.465 10.58a1.166 1.166 0 1 1 0 2.332 1.166 1.166 0 0 1 0-2.332zM6.996 15.244c0-.644.522-1.166 1.166-1.166h46.643c.644 0 1.166.522 1.166 1.166v4.897l-2.332 2.216v-4.78c0-.645-.523-1.167-1.167-1.167H10.495c-.644 0-1.167.522-1.167 1.166v29.152c0 .644.523 1.166 1.167 1.166h41.977c.645 0 1.167-.522 1.167-1.166V25.565l2.332-2.21v26.87H6.996v-34.98zm10.495 15.159a3.498 3.498 0 1 0 2.422 6.012l4.053 2.034a1.166 1.166 0 0 0 1.392-.269l8.616-9.693 8.47 6.347c.455.34 1.089.304 1.501-.086l7.361-6.973v17.787H11.661v-26.82h39.645v5.82l-8.25 7.813-8.54-6.403a1.167 1.167 0 0 0-1.572.157l-8.734 9.828-3.265-1.633a3.3 3.3 0 0 0 .044-.423 3.498 3.498 0 0 0-3.498-3.498zm1.166 3.498a1.166 1.166 0 1 1-2.332 0 1.166 1.166 0 0 1 2.332 0zm6.996 18.657h11.66v1.166c0 .644-.521 1.166-1.165 1.166h-9.329a1.166 1.166 0 0 1-1.166-1.166v-1.166zm-23.32 1.166c0-.644.521-1.166 1.165-1.166h19.823v1.166a3.498 3.498 0 0 0 3.498 3.498h9.329a3.498 3.498 0 0 0 3.498-3.498v-1.166h19.823c.644 0 1.166.522 1.166 1.166v4.664c0 .644-.522 1.166-1.166 1.166H3.499a1.166 1.166 0 0 1-1.167-1.166v-4.664z"
        fill="#212121"></path>
    </g>
    <defs>
      <clipPath id="clip0">
        <path fill="#fff" d="M0 0h70v70H0z"></path>
      </clipPath>
    </defs>
  </symbol>
<!-- clock -->
  <symbol id="clock" viewBox="0 0 70 70" fill="none" xmlns="http://www.w3.org/2000/svg" >
    <g clip-path="url(#clip0)">
      <path d="M68.461 33.471C68.458 14.982 53.466-.004 34.975 0 16.485.004 1.5 14.996 1.504 33.486A33.479 33.479 0 0 0 24.799 65.37c.133.042.27.063.41.063.263 0 .521-.071.748-.205.296-.175.516-.453.62-.78l8.454-26.797a4.184 4.184 0 1 0-1.837-7.95L22.025 18.53a1.395 1.395 0 0 0-1.972 1.973l11.163 11.176a4.104 4.104 0 0 0 1.173 5.051l-8.055 25.535C8.414 56.4.262 38.74 6.126 22.82 11.991 6.9 29.65-1.252 45.571 4.613c15.92 5.864 24.072 23.524 18.207 39.444A30.72 30.72 0 0 1 47.455 61.5l-.87-4.1a1.394 1.394 0 0 0-2.294-.752l-8.393 7.494a1.394 1.394 0 0 0 .505 2.372l10.716 3.42a1.394 1.394 0 0 0 1.791-1.619l-.855-4.022a33.37 33.37 0 0 0 20.406-30.82zm-33.478-1.394a1.395 1.395 0 1 1 0 2.79 1.395 1.395 0 0 1 0-2.79zm4.594 32.515l4.778-4.262 1.319 6.213-6.097-1.951z"
        fill="#212121"></path>
      <path d="M33.588 6.967v2.79a1.395 1.395 0 1 0 2.79 0v-2.79a1.395 1.395 0 0 0-2.79 0zM8.479 32.077a1.395 1.395 0 0 0 0 2.79h2.79a1.395 1.395 0 1 0 0-2.79h-2.79zm53.008 2.79a1.395 1.395 0 1 0 0-2.79h-2.79a1.395 1.395 0 0 0 0 2.79h2.79z" fill="#2196F3"></path>
    </g>
    <defs>
      <clipPath id="clip0">
        <path fill="#fff" d="M0 0h70v70H0z"></path>
      </clipPath>
    </defs>
  </symbol>
  <!-- astronaut -->
  <symbol id="astronaut" viewBox="0 0 70 70" fill="none" xmlns="http://www.w3.org/2000/svg" >
    <path d="M69.943 9.896a1.168 1.168 0 0 0-.941-.793l-4.179-.608-1.87-3.787c-.392-.798-1.7-.798-2.092 0l-1.87 3.787-4.18.608a1.167 1.167 0 0 0-.648 1.99l3.026 2.948-.714 4.162c-.074.438.105.88.464 1.142a1.16 1.16 0 0 0 1.23.088l3.737-1.966 3.738 1.966a1.168 1.168 0 0 0 1.693-1.23l-.713-4.162 3.025-2.949a1.17 1.17 0 0 0 .294-1.196zM64.556 12.8c-.274.267-.4.655-.335 1.033l.418 2.437-2.189-1.15a1.165 1.165 0 0 0-1.087 0l-2.19 1.15.419-2.437a1.168 1.168 0 0 0-.335-1.033l-1.773-1.726 2.448-.356c.38-.055.708-.294.879-.639l1.094-2.216L63 10.078c.17.345.499.584.879.639l2.448.355-1.77 1.727zm-7.389 32.092h-2.334v2.334h2.334v-2.334zm0 4.668h-2.334v2.332h2.334V49.56zm2.333-2.334h-2.333v2.333H59.5v-2.333zm-4.666 0H52.5v2.333h2.334v-2.333zM49 57.726h-2.333v2.333H49v-2.333zm0 4.667h-2.333v2.333H49v-2.333zm2.333-2.333H49v2.333h2.333v-2.334zm-4.666 0h-2.334v2.333h2.334v-2.334zM35 53.06h-2.334v2.333H35v-2.334zm0 4.666h-2.334v2.333H35v-2.333zm2.333-2.334H35v2.334h2.333v-2.334zm-4.667 0h-2.333v2.334h2.333v-2.334zm-19.833-42h-2.334v2.333h2.334v-2.333zm0 4.667h-2.334v2.333h2.334v-2.333zm2.333-2.334h-2.333v2.334h2.333v-2.334zm-4.666 0H8.165v2.334h2.333v-2.334z"
      fill="#2196F3"></path>
    <path d="M54.063 30.974a3.88 3.88 0 0 0-2.599-1.541 3.886 3.886 0 0 0-2.93.77l-2.74 2.097-.001.002-4.151 3.1-2.97-1.184c5.296-2.376 8.998-7.674 8.998-13.825 0-8.362-6.83-15.167-15.227-15.167S17.215 12.03 17.215 20.393c0 3.031.907 5.85 2.45 8.222l-6.046-.053h-.01c-.019 0-.034.01-.051.01a1.136 1.136 0 0 0-.34.069c-.028.01-.057.016-.084.029-.014.006-.028.007-.042.014L6.02 32.175c-.001 0-.003 0-.003.002l-4.141 1.991a.898.898 0 0 0-.138.077A3.895 3.895 0 0 0 .43 39.268a3.884 3.884 0 0 0 2.31 1.944 3.891 3.891 0 0 0 3.016-.281l3.036-1.614 4.952-2.558 2.968-.017L4.808 48.588c0 .002-.002.002-.003.003l-2.929 2.916a3.607 3.607 0 0 0-1.072 2.577c0 .973.38 1.888 1.072 2.578a3.647 3.647 0 0 0 2.58 1.062c.936 0 1.869-.355 2.582-1.062l2.875-2.863 3.808-2.843 1.97 1.962-3.854 3.837-.003.002-2.928 2.917a3.607 3.607 0 0 0-1.073 2.576c0 .973.38 1.89 1.073 2.579a3.65 3.65 0 0 0 2.58 1.061c.935 0 1.87-.354 2.582-1.061l2.93-2.917 4.686-4.667.002-.003 2.21-2.188-.01-.008c.015-.014.035-.019.049-.034l11.3-12.377 7.593 1.08c.055.008.11.012.164.012.142 0 .278-.034.41-.084.039-.014.072-.033.109-.051.042-.021.086-.033.126-.06l7.029-4.666c.026-.018.04-.046.064-.065.028-.022.063-.031.089-.056l2.78-2.605a3.891 3.891 0 0 0 .465-5.166zM4.66 38.872c-.379.203-.81.244-1.221.113a1.564 1.564 0 0 1-.465-2.755l2.874-1.383.692 2.022.29.85-2.17 1.153zm7.65-3.998l-3.387 1.75-.558-1.633-.402-1.174 4.434-2.189-.087 3.246zm33.03-14.482c0 2.009-.48 3.904-1.31 5.599l-9.147-4.155a4.07 4.07 0 0 0-1.724-3.035L36.36 8.168c5.202 1.654 8.98 6.506 8.98 12.223zm-25.788 0c0-7.076 5.784-12.834 12.894-12.834.553 0 1.094.047 1.63.115L30.943 18.07c-.042 0-.081-.013-.125-.013a4.094 4.094 0 0 0-4.096 4.084 4.094 4.094 0 0 0 4.096 4.083c1.52 0 2.832-.838 3.54-2.066l8.45 3.839c-2.352 3.164-6.114 5.227-10.362 5.227-7.11 0-12.894-5.757-12.894-12.833zm13.03 1.75a1.76 1.76 0 0 1-1.764 1.75 1.759 1.759 0 0 1-1.762-1.75c0-.965.79-1.75 1.762-1.75s1.763.785 1.763 1.75zM5.391 55.007a1.331 1.331 0 0 1-1.87.002 1.299 1.299 0 0 1 0-1.847l2.105-2.097L7.49 52.92l-2.097 2.089zm7.03 8.167a1.33 1.33 0 0 1-1.87.002 1.3 1.3 0 0 1 0-1.847l2.106-2.098.88.876.983.978-2.099 2.09zm7.616-7.588l-.003.003-3.86 3.85-.882-.877-.982-.977 3.857-3.84v-.001l.004-.002c.087-.088.142-.193.196-.297.015-.03.044-.056.057-.087.036-.09.042-.187.056-.281.007-.054.03-.104.03-.159 0-.078-.028-.154-.044-.231-.014-.07-.014-.141-.041-.209a1.167 1.167 0 0 0-.2-.3c-.022-.027-.03-.06-.054-.084h-.002s0-.003-.002-.004l-3.515-3.5c-.037-.038-.085-.053-.127-.084a1.112 1.112 0 0 0-.19-.127 1.095 1.095 0 0 0-.205-.07 1.125 1.125 0 0 0-.225-.044 1.132 1.132 0 0 0-.209.01c-.078.01-.151.02-.227.045a1.08 1.08 0 0 0-.207.098c-.043.024-.092.033-.133.063L9.25 51.377l-1.97-1.963 5.247-5.22 9.54 9.382-2.03 2.01zm14.916-15.349c-.033-.004-.065.008-.099.006a1.153 1.153 0 0 0-.252.015 1.075 1.075 0 0 0-.404.15 1.13 1.13 0 0 0-.181.134c-.028.024-.062.036-.088.064L23.653 51.862l-9.468-9.311 6.197-6.165a1.168 1.168 0 0 0-.83-1.993l-4.854.028.061-3.516 6.79.058a15.2 15.2 0 0 0 10.897 4.596c.957 0 1.89-.1 2.799-.268.087.07.174.14.283.185l5.272 2.1.333 1.66.39 1.936-6.569-.935zm8.84.39l-.684-3.408 3.164-2.363.828 1.1 1.242 1.65-4.55 3.02zm8.212-6.193l-1.833 1.718-2.037-2.705 1.818-1.394c.34-.261.768-.367 1.188-.313.422.06.796.28 1.05.622a1.562 1.562 0 0 1-.187 2.072z"
      fill="#212121"></path>
    <path d="M29.755 40.565l-4.688-4.667a1.166 1.166 0 0 0-1.646 0l-4.687 4.667a1.172 1.172 0 0 0 0 1.654l4.687 4.667a1.165 1.165 0 0 0 1.646 0l4.688-4.667a1.167 1.167 0 0 0 0-1.654zm-5.51 3.848l-3.034-3.02 3.033-3.021 3.035 3.02-3.035 3.02zm13.302-33.321l-.564 2.266c.156.039 3.802.988 3.802 4.7h2.333c0-4.412-3.644-6.486-5.571-6.966zm5.571 9.3h-2.334v2.333h2.334v-2.333z"
      fill="#212121"></path>
  </symbol>


<!-- Socials ================================ -->
<!-- facebook -->
<symbol id="facebook" viewBox="0 0 33 33">
<path d="M21.329 5.313h2.921v-5.088c-0.504-0.069-2.237-0.225-4.256-0.225-4.212 0-7.097 2.649-7.097 7.519v4.481h-4.648v5.688h4.648v14.312h5.699v-14.311h4.46l0.708-5.688h-5.169v-3.919c0.001-1.644 0.444-2.769 2.735-2.769z"></path>
</symbol>
<!-- instagram -->
<symbol id="instagram" viewBox="0 0 33 33">
<path  d="M31.969 9.408c-0.075-1.7-0.35-2.869-0.744-3.882-0.406-1.075-1.032-2.038-1.851-2.838-0.8-0.813-1.769-1.444-2.832-1.844-1.019-0.394-2.182-0.669-3.882-0.744-1.713-0.081-2.257-0.1-6.601-0.1s-4.888 0.019-6.595 0.094c-1.7 0.075-2.869 0.35-3.882 0.744-1.075 0.406-2.038 1.031-2.838 1.85-0.813 0.8-1.444 1.769-1.844 2.832-0.394 1.019-0.669 2.182-0.744 3.882-0.081 1.713-0.1 2.257-0.1 6.601s0.019 4.888 0.094 6.595c0.075 1.7 0.35 2.869 0.744 3.882 0.406 1.075 1.038 2.038 1.85 2.838 0.8 0.813 1.769 1.444 2.832 1.844 1.019 0.394 2.182 0.669 3.882 0.744 1.706 0.075 2.25 0.094 6.595 0.094s4.888-0.019 6.595-0.094c1.7-0.075 2.869-0.35 3.882-0.744 2.151-0.832 3.851-2.532 4.682-4.682 0.394-1.019 0.669-2.182 0.744-3.882 0.075-1.707 0.094-2.251 0.094-6.595s-0.006-4.888-0.081-6.595zM29.087 22.473c-0.069 1.563-0.331 2.407-0.55 2.969-0.538 1.394-1.644 2.5-3.038 3.038-0.563 0.219-1.413 0.481-2.969 0.55-1.688 0.075-2.194 0.094-6.464 0.094s-4.782-0.019-6.464-0.094c-1.563-0.069-2.407-0.331-2.969-0.55-0.694-0.256-1.325-0.663-1.838-1.194-0.531-0.519-0.938-1.144-1.194-1.838-0.219-0.563-0.481-1.413-0.55-2.969-0.075-1.688-0.094-2.194-0.094-6.464s0.019-4.782 0.094-6.464c0.069-1.563 0.331-2.407 0.55-2.969 0.256-0.694 0.663-1.325 1.2-1.838 0.519-0.531 1.144-0.938 1.838-1.194 0.563-0.219 1.413-0.481 2.969-0.55 1.688-0.075 2.194-0.094 6.464-0.094 4.276 0 4.782 0.019 6.464 0.094 1.563 0.069 2.407 0.331 2.969 0.55 0.694 0.256 1.325 0.662 1.838 1.194 0.531 0.519 0.938 1.144 1.194 1.838 0.219 0.563 0.481 1.413 0.55 2.969 0.075 1.688 0.094 2.194 0.094 6.464s-0.019 4.77-0.094 6.458z"></path>
<path  d="M16.059 7.783c-4.538 0-8.22 3.682-8.22 8.22s3.682 8.22 8.22 8.22c4.539 0 8.22-3.682 8.22-8.22s-3.682-8.22-8.22-8.22zM16.059 21.335c-2.944 0-5.332-2.388-5.332-5.332s2.388-5.332 5.332-5.332c2.944 0 5.332 2.388 5.332 5.332s-2.388 5.332-5.332 5.332z"></path>
<path  d="M26.524 7.458c0 1.060-0.859 1.919-1.919 1.919s-1.919-0.859-1.919-1.919c0-1.060 0.859-1.919 1.919-1.919s1.919 0.859 1.919 1.919z"></path>
</symbol>
<!--linkedin  -->
<symbol id="linkedin" viewBox="0 0 33 33">
<path  d="M31.992 32v-0.001h0.008v-11.736c0-5.741-1.236-10.164-7.948-10.164-3.227 0-5.392 1.771-6.276 3.449h-0.093v-2.913h-6.364v21.364h6.627v-10.579c0-2.785 0.528-5.479 3.977-5.479 3.399 0 3.449 3.179 3.449 5.657v10.401h6.62z"></path>
<path  d="M0.528 10.636h6.635v21.364h-6.635v-21.364z"></path>
<path  d="M3.843 0c-2.121 0-3.843 1.721-3.843 3.843s1.721 3.879 3.843 3.879c2.121 0 3.843-1.757 3.843-3.879-0.001-2.121-1.723-3.843-3.843-3.843v0z"></path>
</symbol>
<!-- twitter -->
<symbol id="twitter" viewBox="0 0 33 33">
<path  d="M32 6.078c-1.19 0.522-2.458 0.868-3.78 1.036 1.36-0.812 2.398-2.088 2.886-3.626-1.268 0.756-2.668 1.29-4.16 1.588-1.204-1.282-2.92-2.076-4.792-2.076-3.632 0-6.556 2.948-6.556 6.562 0 0.52 0.044 1.020 0.152 1.496-5.454-0.266-10.28-2.88-13.522-6.862-0.566 0.982-0.898 2.106-0.898 3.316 0 2.272 1.17 4.286 2.914 5.452-1.054-0.020-2.088-0.326-2.964-0.808 0 0.020 0 0.046 0 0.072 0 3.188 2.274 5.836 5.256 6.446-0.534 0.146-1.116 0.216-1.72 0.216-0.42 0-0.844-0.024-1.242-0.112 0.85 2.598 3.262 4.508 6.13 4.57-2.232 1.746-5.066 2.798-8.134 2.798-0.538 0-1.054-0.024-1.57-0.090 2.906 1.874 6.35 2.944 10.064 2.944 12.072 0 18.672-10 18.672-18.668 0-0.29-0.010-0.57-0.024-0.848 1.302-0.924 2.396-2.078 3.288-3.406z"></path>
</symbol>

<!-- partners ================================-->
  <!-- client-1 -->
  <symbol id="client-1" viewBox="0 0 45 50"  xmlns="http://www.w3.org/2000/svg" >
    <path d="M6 0l7.308 6.918h20.384v19.298L41 33.134V0H6z" ></path>
    <path d="M0 6.626v32.188h34V26.02L13.523 6.634 0 6.626zm27.523 27.48H5.38V12.457h1.565V32.64h20.578v1.465zM9.791 44.784l.818-1.685h.684L10.1 45.345v1.309h-.62v-1.309L8.287 43.1h.686l.818 1.685zm3.51 1.042h-1.376l-.288.828h-.642l1.342-3.555h.555l1.345 3.555h-.645l-.29-.828zm-1.203-.498h1.03l-.515-1.475-.515 1.475zm3.638.366c0-.164.045-.315.134-.451.09-.139.266-.302.53-.491a2.265 2.265 0 0 1-.29-.444.877.877 0 0 1-.081-.354c0-.279.084-.498.254-.66.169-.162.397-.244.683-.244.26 0 .47.077.635.23.166.151.25.34.25.564a.785.785 0 0 1-.113.41 1.34 1.34 0 0 1-.369.371l-.242.176.687.81c.099-.195.148-.412.148-.651h.515c0 .437-.102.796-.307 1.076l.522.618h-.688l-.2-.237a1.47 1.47 0 0 1-.909.286c-.351 0-.633-.093-.844-.279a.932.932 0 0 1-.315-.73zm1.177.535c.2 0 .387-.067.561-.2l-.776-.916-.076.054c-.195.148-.293.317-.293.508 0 .164.053.298.159.4a.585.585 0 0 0 .425.154zm-.328-2.29c0 .137.084.308.252.515l.27-.185.077-.061a.44.44 0 0 0 .151-.345.311.311 0 0 0-.105-.236.37.37 0 0 0-.266-.1.348.348 0 0 0-.276.117.432.432 0 0 0-.103.295zm6.458 1.558c-.036.379-.176.675-.42.888-.244.212-.569.318-.974.318-.283 0-.533-.067-.75-.2a1.332 1.332 0 0 1-.498-.574 2.065 2.065 0 0 1-.183-.862v-.332c0-.335.06-.63.178-.886.12-.256.29-.453.51-.591a1.43 1.43 0 0 1 .772-.208c.392 0 .708.107.947.32.24.213.379.514.418.903h-.615c-.03-.255-.104-.439-.225-.551-.119-.114-.294-.171-.525-.171-.268 0-.475.098-.62.295-.143.196-.216.483-.22.862v.315c0 .384.069.677.206.879.138.202.34.303.605.303.242 0 .425-.055.547-.164.122-.109.2-.29.232-.544h.615zm3.391-.528c0 .349-.06.654-.18.918a1.384 1.384 0 0 1-.518.606c-.223.14-.48.21-.772.21-.288 0-.545-.07-.771-.21a1.405 1.405 0 0 1-.523-.603 2.124 2.124 0 0 1-.185-.901v-.2c0-.347.06-.653.183-.918.124-.266.297-.468.52-.608.225-.142.482-.213.771-.213.29 0 .547.07.77.21.224.139.398.339.52.6.122.261.184.565.185.912v.197zm-.618-.185c0-.394-.075-.696-.224-.906a.728.728 0 0 0-.633-.315.731.731 0 0 0-.627.315c-.15.208-.226.504-.23.886v.205c0 .39.076.693.228.906.153.213.364.32.634.32.274 0 .484-.104.63-.313.148-.208.222-.512.222-.913v-.185z"
      ></path>
  </symbol>

    <!-- client-2 -->
  <symbol id="client-2" viewBox="0 0 40 52"  xmlns="http://www.w3.org/2000/svg" >
    <path d="M16.977 2.935h.136c.253 0 .527.025.797.048 1.193.084 2.377.263 3.542.534V.654A21.09 21.09 0 0 0 17.797.07 29.24 29.24 0 0 0 16.319 0h-.427c-2.475.01-4.94.327-7.337.946-2.73.68-5.35 1.747-7.784 3.166v28.397a31.634 31.634 0 0 1 7.42-2.892 32.36 32.36 0 0 1 6.228-.956h.084a23.21 23.21 0 0 1 1.065-.03v-2.91a34.328 34.328 0 0 0-8.095 1.076c-.98.255-1.925.53-2.813.834l-1.012.344V5.833l.432-.208a28.275 28.275 0 0 1 10.516-2.683.627.627 0 0 1 .091 0c.403-.02.808-.03 1.205-.03h.455c.21.005.42.01.63.023z"
      ></path>
    <path d="M24.111 5.933a25.915 25.915 0 0 1-4.235-.344c-.45-.076-.893-.168-1.323-.267v28.072c1.82.45 3.69.67 5.566.656a29.943 29.943 0 0 0 7.336-.944 29.814 29.814 0 0 0 7.786-3.166V2.05a31.774 31.774 0 0 1-7.417 2.893c-2.52.648-5.111.98-7.713.99zm11.224.485l1.012-.34v22.148l-.432.209a27.761 27.761 0 0 1-5.174 1.859c-2.163.56-4.386.847-6.62.857-.668 0-1.33-.028-1.973-.084l-.693-.061V8.228l.807.054a28.52 28.52 0 0 0 1.854.056 34.263 34.263 0 0 0 8.406-1.078 44.55 44.55 0 0 0 2.813-.842zM2.737 42.212a1.492 1.492 0 0 0-1.125-.455 1.673 1.673 0 0 0-.65.122 1.463 1.463 0 0 0-.832.842c-.08.2-.12.413-.117.628v3.794c-.01.267.042.533.149.778.09.195.219.368.38.509.151.127.33.22.52.27.185.051.376.078.567.078.212.002.42-.043.612-.132a1.599 1.599 0 0 0 .96-1.465v-.424h-.992v.338a.881.881 0 0 1-.059.338.608.608 0 0 1-.144.214.697.697 0 0 1-.415.145.503.503 0 0 1-.465-.204.899.899 0 0 1-.132-.508v-3.538c-.006-.196.036-.39.122-.567a.507.507 0 0 1 .485-.229.527.527 0 0 1 .443.214.806.806 0 0 1 .165.509v.328h.981v-.387a1.788 1.788 0 0 0-.121-.664 1.562 1.562 0 0 0-.332-.534zm5.892-.042a1.766 1.766 0 0 0-1.129-.418 1.736 1.736 0 0 0-.592.107A1.558 1.558 0 0 0 6 42.7c-.1.231-.149.482-.144.735v3.638c-.007.256.042.51.144.745.09.196.221.37.385.51.151.14.33.249.523.32a1.712 1.712 0 0 0 1.72-.32c.159-.143.286-.316.375-.51.102-.234.151-.489.144-.745v-3.639a1.77 1.77 0 0 0-.144-.734 1.641 1.641 0 0 0-.374-.532zm-.463 4.904a.654.654 0 0 1-.198.527.726.726 0 0 1-.933 0 .65.65 0 0 1-.197-.527v-3.639a.654.654 0 0 1 .197-.526.726.726 0 0 1 .933 0 .65.65 0 0 1 .198.526v3.64zm8.201 1.626v-6.89h-.953l-1.252 3.647h-.018l-1.262-3.646h-.944v6.888h.984v-4.19h.018l.964 2.962h.49l.972-2.962h.018v4.19h.983zm5.591-6.406c-.151-.17-.343-.3-.556-.377a2.184 2.184 0 0 0-.714-.107h-1.462v6.89h.982v-2.691h.506c.306.014.61-.051.885-.188a1.43 1.43 0 0 0 .539-.527c.113-.183.19-.387.225-.6a4.9 4.9 0 0 0 .053-.783c.01-.33-.023-.662-.096-.984a1.465 1.465 0 0 0-.362-.633zm-.506 2.1a.868.868 0 0 1-.09.359.552.552 0 0 1-.254.241 1.006 1.006 0 0 1-.463.087h-.447v-2.342h.505a.942.942 0 0 1 .443.086.556.556 0 0 1 .23.254 1 1 0 0 1 .086.384v.458c0 .16.01.326 0 .473h-.01zm5.155-2.584h-.804l-1.518 6.89h.982l.288-1.48h1.338l.289 1.48h.981l-1.556-6.89zm-.905 4.471l.483-2.497h.018l.48 2.497h-.981zm7.248-.321h-.018l-1.483-4.15h-.943v6.89h.981v-4.143h.02l1.5 4.142h.924v-6.888h-.981v4.15zm5.998-4.15l-.79 2.74h-.02l-.79-2.74H36.31l1.348 3.978v2.911h.982v-2.911l1.348-3.977h-1.04zM0 50.645h.473v1.327h.321v-1.328h.47v-.272H0v.273zm3.977-.273l-.62 1.6h.341l.132-.364h.637l.137.364h.35l-.636-1.6h-.341zm-.05.967l.217-.593.217.593h-.435zm3.981.043h.37v.206a.613.613 0 0 1-.38.135.404.404 0 0 1-.34-.153.669.669 0 0 1-.118-.417c0-.356.154-.534.46-.534a.337.337 0 0 1 .362.255l.316-.062c-.068-.312-.293-.47-.678-.47a.804.804 0 0 0-.559.206.78.78 0 0 0-.23.615.873.873 0 0 0 .205.6.776.776 0 0 0 .607.235.96.96 0 0 0 .678-.255v-.63h-.693v.27zm4.014-1.01H11.6v1.6h1.12V51.7h-.797v-1.328zm3.396 0h-.324v1.6h.324v-1.6zm3.318 1.068l-.655-1.068h-.314v1.6h.301v-1.045l.643 1.045h.321v-1.6h-.296v1.069zm3.001-.173h.797v-.272h-.797v-.35h.857v-.273h-1.181v1.6h1.214V51.7h-.89v-.433zm7.275-.264h-.63v-.63h-.321v1.599h.321v-.7h.63v.7h.321v-1.6h-.32v.631zm3.018.264h.8v-.272h-.8v-.35h.86v-.273h-1.18v1.6h1.212V51.7h-.89v-.433zm4.093.001c.279-.044.42-.191.42-.445a.383.383 0 0 0-.156-.356.903.903 0 0 0-.468-.094h-.678v1.6h.32v-.67h.064a.43.43 0 0 1 .2.036.336.336 0 0 1 .114.117l.349.508h.384l-.194-.312a1.113 1.113 0 0 0-.355-.384zm-.323-.222h-.238v-.401h.253a.837.837 0 0 1 .326.038.208.208 0 0 1 .046.256.209.209 0 0 1-.061.07.91.91 0 0 1-.326.037zm3.41.221h.796v-.272h-.797v-.35h.86v-.273h-1.183v1.6H40V51.7h-.89v-.433z"
      ></path>
  </symbol>

    <!-- client-3 -->
  <symbol id="client-3" viewBox="0 0 41 43"  xmlns="http://www.w3.org/2000/svg" >
    <path d="M6.346 41.795a.118.118 0 0 1 .08.034l.205.216c-.16.174-.357.314-.579.409a2.07 2.07 0 0 1-.82.147 2.011 2.011 0 0 1-.772-.137 1.672 1.672 0 0 1-.957-.986 2.163 2.163 0 0 1-.13-.767 2.017 2.017 0 0 1 .14-.77c.09-.222.226-.425.4-.597.175-.17.385-.302.617-.39.253-.094.523-.14.795-.137.252-.006.503.036.738.125.203.084.39.2.553.345l-.173.23a.173.173 0 0 1-.043.042.11.11 0 0 1-.07.018.157.157 0 0 1-.074-.025l-.093-.061-.129-.079a1.4 1.4 0 0 0-.406-.137 1.643 1.643 0 0 0-.306-.024 1.532 1.532 0 0 0-.571.102 1.29 1.29 0 0 0-.448.29c-.128.133-.227.29-.29.46a1.686 1.686 0 0 0-.106.608c-.003.21.033.42.106.618.062.169.16.325.285.458.118.125.264.222.427.285.168.066.348.1.53.098.105.001.21-.005.314-.02.17-.02.332-.076.476-.164.072-.045.14-.096.203-.152a.153.153 0 0 1 .098-.04zm5.941-1.085c.003.26-.044.52-.139.763a1.655 1.655 0 0 1-.387.592 1.754 1.754 0 0 1-.608.388 2.296 2.296 0 0 1-1.564 0 1.777 1.777 0 0 1-.604-.39 1.74 1.74 0 0 1-.391-.597 2.167 2.167 0 0 1 0-1.527 1.78 1.78 0 0 1 .39-.6 1.78 1.78 0 0 1 .605-.375 2.258 2.258 0 0 1 1.564 0c.228.088.435.22.607.39.17.17.301.37.388.59.095.245.143.505.14.767zm-.54 0a1.759 1.759 0 0 0-.098-.612 1.208 1.208 0 0 0-.71-.747 1.658 1.658 0 0 0-1.137 0 1.208 1.208 0 0 0-.712.747c-.13.4-.13.827 0 1.226a1.203 1.203 0 0 0 .712.745c.367.13.77.13 1.137 0a1.21 1.21 0 0 0 .435-.287c.123-.134.217-.29.275-.458.07-.198.102-.405.098-.613zm4.593.643l.055.137a2.56 2.56 0 0 1 .059-.137 1.32 1.32 0 0 1 .067-.135l1.314-2.276c.026-.04.049-.064.075-.071a.322.322 0 0 1 .108-.012h.388v3.702h-.46v-2.836a1.085 1.085 0 0 1 0-.128l-1.322 2.309a.202.202 0 0 1-.078.084.216.216 0 0 1-.113.03h-.074a.21.21 0 0 1-.113-.03.2.2 0 0 1-.078-.084l-1.36-2.324v2.973h-.445V38.86h.388a.322.322 0 0 1 .108.012.15.15 0 0 1 .072.071l1.343 2.279a.805.805 0 0 1 .067.132zm4.947-.183v1.386h-.514V38.86h1.147a2.25 2.25 0 0 1 .64.08c.167.045.321.124.453.23.114.1.202.225.257.363.06.151.09.312.088.473.002.162-.03.323-.096.473a1.012 1.012 0 0 1-.277.37 1.27 1.27 0 0 1-.456.245c-.2.061-.41.09-.62.086l-.622-.01zm0-.398h.622c.136.002.27-.017.399-.056a.843.843 0 0 0 .288-.16.651.651 0 0 0 .175-.244.768.768 0 0 0 .062-.312.677.677 0 0 0-.052-.3.707.707 0 0 0-.18-.253 1.033 1.033 0 0 0-.692-.199h-.622v1.524zm6.913 1.789h-.406a.181.181 0 0 1-.113-.034.226.226 0 0 1-.067-.086l-.35-.894h-1.756l-.363.894a.2.2 0 0 1-.064.083.18.18 0 0 1-.116.037h-.406l1.543-3.703h.535l1.564 3.703zm-2.546-1.375h1.451l-.612-1.507a2.614 2.614 0 0 1-.116-.348l-.06.194a1.842 1.842 0 0 1-.056.157l-.607 1.504zm4.769-2.311c.031.017.058.04.078.067l2.25 2.79v-2.874h.46v3.703h-.257a.23.23 0 0 1-.105-.022.283.283 0 0 1-.082-.069l-2.249-2.788a.897.897 0 0 1 0 .127v2.753h-.46v-3.704h.273c.032 0 .063.005.092.017zm6.58 2.213v1.47h-.515v-1.47l-1.422-2.23h.46a.173.173 0 0 1 .11.032.317.317 0 0 1 .07.084l.89 1.438a1.542 1.542 0 0 1 .157.328l.067-.159c.025-.058.054-.115.088-.169l.877-1.448a.373.373 0 0 1 .067-.079.161.161 0 0 1 .11-.036h.466l-1.425 2.24zm-20.917-8.444c.224.027.45.05.679.069 3.47-1.48 6.407-3.9 8.441-6.96 2.034-3.06 3.077-6.624 2.997-10.246l-3.825-3.644a20.22 20.22 0 0 1-1.05 11.512c-1.465 3.67-3.972 6.88-7.242 9.27z"
      ></path>
    <path d="M14.72 32.475l.103.02c3.494-2.382 6.158-5.707 7.648-9.546a19.54 19.54 0 0 0 .706-11.99L17.73 5.77a24.082 24.082 0 0 1 2.557 13.768c-.532 4.728-2.463 9.214-5.567 12.938zm18.476-12.689c-.926 3.98-3.173 7.568-6.41 10.234a20.213 20.213 0 0 1-3.045 2.082 18.187 18.187 0 0 0 7.08-3.813 17.084 17.084 0 0 0 4.584-6.4l-2.21-2.103z"
      ></path>
    <path d="M32.33 19.2l-3.146-2.997a18.475 18.475 0 0 1-2.953 9.67c-1.873 2.915-4.532 5.299-7.699 6.903h.016c.705 0 1.41-.04 2.111-.12a19.338 19.338 0 0 0 7.611-5.33 18.093 18.093 0 0 0 4.06-8.126zM15.176 3.58L11.423 0c-3.355 1.235-6.24 3.406-8.278 6.23C1.107 9.053.01 12.397 0 15.823c.013 3.787 1.35 7.46 3.801 10.441 2.451 2.98 5.875 5.097 9.731 6.015 3.442-3.995 5.457-8.932 5.753-14.093.295-5.161-1.144-10.277-4.11-14.606zM41 18.649c-.013-4.492-1.892-8.797-5.227-11.973-3.334-3.177-7.852-4.967-12.567-4.98a18.383 18.383 0 0 0-6.371 1.13l22.977 21.89A16.07 16.07 0 0 0 41 18.65z"
      ></path>
  </symbol>

    <!-- client-4 -->
  <symbol id="client-4" viewBox="0 0 80 43"  xmlns="http://www.w3.org/2000/svg" >
    <path d="M12.402 12.83H12.4c-2.263 0-4.097 1.788-4.097 3.992v.003c0 2.204 1.834 3.992 4.096 3.992h.003c2.263 0 4.097-1.788 4.097-3.992v-.003c0-2.204-1.834-3.991-4.097-3.991zm30.235-1.275c-.007-3.063-1.258-5.997-3.48-8.163C36.938 1.227 33.926.007 30.784 0c-3.143.006-6.156 1.225-8.379 3.39-2.223 2.166-3.474 5.102-3.48 8.165V28.44s23.71-2.573 23.713-16.883v-.002zM0 33.982a7.96 7.96 0 0 0 2.422 5.68 8.384 8.384 0 0 0 5.827 2.362 8.384 8.384 0 0 0 5.826-2.361 7.96 7.96 0 0 0 2.424-5.678v-11.75S0 24.029 0 33.983zm8.25 2.105a2.2 2.2 0 0 1-1.2-.354 2.117 2.117 0 0 1-.797-.945 2.055 2.055 0 0 1-.122-1.216c.083-.409.289-.784.59-1.078a2.178 2.178 0 0 1 1.107-.576 2.2 2.2 0 0 1 1.248.12c.395.159.732.429.97.775a2.068 2.068 0 0 1 .201 1.977 2.1 2.1 0 0 1-.467.686c-.201.196-.44.352-.702.458a2.209 2.209 0 0 1-.829.161v-.008zm16.84-1.306h-1.688v1.743h-.88V32.26H25.3v.712h-1.898v1.101h1.687v.71zm4.224-.293c0 .42-.074.788-.223 1.105-.148.316-.361.56-.638.732a1.755 1.755 0 0 1-.95.258c-.353 0-.669-.085-.946-.255a1.695 1.695 0 0 1-.644-.726 2.511 2.511 0 0 1-.232-1.09V34.3c0-.42.075-.79.226-1.108.152-.32.366-.565.641-.735.278-.172.594-.258.95-.258.355 0 .67.086.946.258.277.17.491.415.641.735.153.319.229.687.229 1.105v.19zm-.89-.193c0-.447-.08-.787-.24-1.02a.783.783 0 0 0-.686-.348.782.782 0 0 0-.683.346c-.16.228-.241.564-.243 1.007v.208c0 .436.08.774.24 1.014.16.24.39.36.691.36a.775.775 0 0 0 .68-.345c.158-.233.238-.57.24-1.014v-.208zm3.74 1.11a.447.447 0 0 0-.175-.38c-.117-.09-.328-.184-.633-.282a4.565 4.565 0 0 1-.724-.293c-.484-.262-.726-.614-.726-1.057 0-.23.064-.436.193-.616.131-.181.317-.323.56-.425.244-.101.517-.152.82-.152.305 0 .576.056.815.167.238.11.422.265.553.466.133.201.2.43.2.686h-.88c0-.196-.061-.347-.184-.454-.123-.11-.296-.165-.519-.165-.214 0-.381.046-.5.138a.426.426 0 0 0-.18.358c0 .138.07.254.209.348.14.094.346.182.618.264.5.15.864.337 1.093.56.228.222.342.5.342.831 0 .37-.14.66-.419.87-.279.21-.655.314-1.128.314-.328 0-.626-.06-.896-.179a1.438 1.438 0 0 1-.618-.495 1.27 1.27 0 0 1-.211-.726h.882c0 .47.281.706.844.706.209 0 .372-.042.489-.126a.418.418 0 0 0 .176-.358zm4.691-2.434h-1.307v3.553h-.879v-3.553H33.38v-.712h3.475v.712zm3.07 1.705h-1.687v1.142h1.98v.706h-2.86V32.26h2.854v.712h-1.974v1.016h1.687v.689zm2.388.287h-.7v1.561h-.88V32.26h1.586c.504 0 .892.112 1.166.337.273.224.41.542.41.952 0 .29-.064.534-.19.73a1.282 1.282 0 0 1-.572.462l.923 1.743v.041h-.943l-.8-1.561zm-.7-.712h.709c.22 0 .391-.056.512-.167a.607.607 0 0 0 .182-.466c0-.201-.057-.36-.173-.474-.113-.116-.288-.173-.524-.173h-.706v1.28zm5.326.77v1.503h-.879V32.26h1.664c.32 0 .602.058.844.176.244.117.431.284.562.5.131.215.197.46.197.736 0 .418-.144.748-.431.99-.285.24-.68.36-1.187.36h-.77zm0-.711h.785c.233 0 .41-.055.53-.165.123-.109.185-.265.185-.468a.704.704 0 0 0-.185-.507c-.123-.129-.293-.195-.51-.2h-.805v1.34zm5.56.366h-1.687v1.142h1.98v.706h-2.859V32.26h2.854v.712h-1.975v1.016H52.5v.689zm4.079-1.705H55.27v3.553h-.879v-3.553h-1.289v-.712h3.475v.712zm3.07 1.705H57.96v1.142h1.98v.706h-2.858V32.26h2.853v.712H57.96v1.016h1.688v.689zm2.388.287h-.7v1.561h-.88V32.26h1.585c.504 0 .893.112 1.167.337.273.224.41.542.41.952 0 .29-.064.534-.19.73a1.282 1.282 0 0 1-.572.462l.923 1.743v.041h-.944l-.8-1.561zm-.7-.712h.708c.221 0 .392-.056.513-.167a.607.607 0 0 0 .182-.466c0-.201-.058-.36-.173-.474-.113-.116-.288-.173-.525-.173h-.706v1.28zm5.165 1.154a.447.447 0 0 0-.176-.38c-.118-.09-.328-.184-.633-.282a4.56 4.56 0 0 1-.724-.293c-.484-.262-.726-.614-.726-1.057 0-.23.064-.436.193-.616.13-.181.317-.323.56-.425.244-.101.517-.152.82-.152.305 0 .576.056.814.167.239.11.423.265.554.466.133.201.2.43.2.686h-.88c0-.196-.061-.347-.184-.454-.123-.11-.296-.165-.519-.165-.215 0-.382.046-.5.138a.426.426 0 0 0-.18.358c0 .138.07.254.209.348.14.094.346.182.618.264.5.15.864.337 1.093.56.228.222.342.5.342.831 0 .37-.14.66-.419.87-.279.21-.655.314-1.128.314-.328 0-.626-.06-.896-.179a1.438 1.438 0 0 1-.618-.495 1.27 1.27 0 0 1-.211-.726h.882c0 .47.28.706.843.706.21 0 .373-.042.49-.126a.418.418 0 0 0 .175-.358z"
      ></path>
  </symbol>

    <!-- client-5 -->
  <symbol id="client-5" viewBox="0 0 59 47"  xmlns="http://www.w3.org/2000/svg" >
    <path d="M4.488 39.278c.23.285.352.643.346 1.01a1.605 1.605 0 0 1-.536 1.277c-.447.339-1 .504-1.559.466H0v-6.405h2.683a2.284 2.284 0 0 1 1.487.426 1.463 1.463 0 0 1 .52 1.198c.016.353-.095.7-.311.98a1.46 1.46 0 0 1-.817.5c.363.067.692.26.926.548zm-3.213-.967H2.42c.261.02.52-.056.73-.213a.76.76 0 0 0 .246-.626.788.788 0 0 0-.243-.626 1.107 1.107 0 0 0-.751-.215H1.275v1.68zm1.988 2.456a.795.795 0 0 0 .271-.65.81.81 0 0 0-.277-.658 1.18 1.18 0 0 0-.78-.231H1.276v1.761h1.218c.274.016.546-.062.77-.222zm6.709 1.264L8.48 39.528h-.561v2.503H6.635v-6.405h2.43a2.39 2.39 0 0 1 1.693.545 2.047 2.047 0 0 1 .18 2.65c-.3.345-.709.575-1.159.65l1.59 2.56H9.972zM7.92 38.655h1.05c.73 0 1.094-.323 1.094-.97a.956.956 0 0 0-.268-.72 1.134 1.134 0 0 0-.826-.26H7.906l.013 1.95zm9.07 2.087h-2.558l-.452 1.29h-1.346l2.35-6.334h1.455l2.34 6.333h-1.346l-.442-1.289zm-.342-.97l-.935-2.703-.935 2.703h1.87zm9.128 2.259H24.5l-2.857-4.355v4.355h-1.272v-6.405h1.272l2.857 4.38v-4.38h1.275v6.405zm7.274-1.533a2.757 2.757 0 0 1-1.153 1.13c-.555.281-1.17.42-1.792.403h-2.27v-6.405h2.27a3.816 3.816 0 0 1 1.792.395c.488.246.89.636 1.153 1.117a3.735 3.735 0 0 1 0 3.36zm-1.459-.153a2.352 2.352 0 0 0 0-3.057 2.21 2.21 0 0 0-1.595-.545h-.885v4.146h.885a2.21 2.21 0 0 0 1.595-.544zM17.789 0S34.24 6.236 33.89 15.26v15.263s-16.439-6.24-16.096-15.263L17.789 0zm30.758 26.95A22.485 22.485 0 0 1 59 23.082v-4.778a21.466 21.466 0 0 0-10.453 8.646z"
      ></path>
    <path d="M46.68 28.389A22.381 22.381 0 0 1 59 17.303V3.536s-23.43 8.883-22.934 21.733V47s1.044-.397 2.687-1.142c0-.695 0-1.396.075-2.1A22.605 22.605 0 0 1 46.68 28.39z" ></path>
    <path d="M44.453 36.462c.123-1.507.397-2.998.82-4.45a21.04 21.04 0 0 0-4.962 13.126 67.976 67.976 0 0 0 4.506-2.384 22.574 22.574 0 0 1-.364-6.292zm.932.078a21.58 21.58 0 0 0 .29 5.698c6.4-3.846 13.593-9.788 13.316-16.969v-.625a20.972 20.972 0 0 0-12.18 5.713 21.49 21.49 0 0 0-1.426 6.183z"
      ></path>
  </symbol>

    <!-- client-6 -->
  <symbol id="client-6" viewBox="0 0 89 46"  xmlns="http://www.w3.org/2000/svg" >
    <path d="M44.74 21.353a3.259 3.259 0 0 1-.57-2.057v-2.982c0-.915.189-1.61.567-2.085.378-.475 1.028-.712 1.949-.71.865 0 1.48.202 1.843.607.396.516.589 1.147.544 1.784v.7h-1.547v-.71a3.961 3.961 0 0 0-.045-.694.69.69 0 0 0-.221-.413.836.836 0 0 0-.561-.16.886.886 0 0 0-.59.17.81.81 0 0 0-.257.455c-.044.243-.064.49-.06.737v3.62a2 2 0 0 0 .198 1.016.734.734 0 0 0 .31.247.78.78 0 0 0 .399.057.788.788 0 0 0 .548-.164.748.748 0 0 0 .23-.44c.037-.24.053-.483.049-.725v-.735h1.547v.67a2.914 2.914 0 0 1-.535 1.876c-.355.443-.961.664-1.852.664-.891 0-1.564-.236-1.946-.728zm6.446.031c-.391-.465-.587-1.141-.587-2.036V16.21c0-.886.196-1.556.587-2.011.39-.455 1.044-.682 1.961-.68.91 0 1.56.227 1.952.68.39.455.59 1.125.59 2.011v3.138c0 .886-.2 1.565-.597 2.033-.397.467-1.044.7-1.945.7-.9 0-1.567-.236-1.961-.697zm2.682-.753c.14-.29.204-.61.186-.928v-3.841a1.843 1.843 0 0 0-.183-.91.738.738 0 0 0-.316-.25.784.784 0 0 0-.408-.054.794.794 0 0 0-.41.054.75.75 0 0 0-.318.25c-.14.283-.204.596-.185.91v3.859c-.02.32.044.638.185.928a.96.96 0 0 0 .327.23 1.008 1.008 0 0 0 .796 0 .96.96 0 0 0 .326-.23v-.018zm3.682-7.021h1.667l1.253 5.79 1.282-5.79h1.622l.163 8.356H62.34l-.128-5.807-1.238 5.807h-.961l-1.282-5.828-.119 5.828H57.4l.15-8.355zm7.856 0h2.596c1.496 0 2.244.791 2.244 2.373 0 1.515-.788 2.271-2.362 2.27h-.885v3.713h-1.602l.01-8.355zm2.218 3.571a1.136 1.136 0 0 0 .881-.263c.184-.283.265-.614.231-.944a2.859 2.859 0 0 0-.077-.758.633.633 0 0 0-.118-.23.672.672 0 0 0-.202-.168 1.529 1.529 0 0 0-.715-.133h-.622v2.496h.622zm4.932-3.571h1.721l1.766 8.356h-1.494l-.349-1.927h-1.535l-.36 1.927H70.79l1.766-8.355zm1.471 5.462l-.6-3.508-.599 3.508h1.199zm3.442-5.462h1.122l2.147 4.767V13.61h1.33v8.355h-1.067l-2.16-4.976v4.976h-1.375l.003-8.355zm7.715 5.17l-1.786-5.158h1.504l1.09 3.313 1.022-3.313h1.47l-1.762 5.158v3.186h-1.538V18.78zm-37.969 6.839v.437h-1.308v3.395h-.548v-3.395h-1.314v-.437h3.17zm4.099 3.832h-.423a.177.177 0 0 1-.119-.036.196.196 0 0 1-.07-.088l-.378-.91H48.51l-.378.91a.258.258 0 0 1-.058.103.183.183 0 0 1-.119.036h-.423l1.603-3.832h.557l1.622 3.817zm-2.654-1.423h1.513l-.64-1.56a2.964 2.964 0 0 1-.12-.36l-.06.203-.058.16-.635 1.557zm5.417 1.047c.1.005.2.005.3 0 .087-.009.173-.024.257-.046a1.82 1.82 0 0 0 .231-.07c.07-.027.141-.06.215-.093v-.862h-.641a.12.12 0 0 1-.087-.03.087.087 0 0 1-.032-.07v-.295h1.244v1.469a2.355 2.355 0 0 1-.676.312 2.655 2.655 0 0 1-.401.08 4.459 4.459 0 0 1-.468.024 2.252 2.252 0 0 1-.808-.143 1.937 1.937 0 0 1-.64-.4 1.849 1.849 0 0 1-.414-.607 2.076 2.076 0 0 1-.147-.795 2.155 2.155 0 0 1 .144-.802c.092-.227.233-.433.413-.606.183-.173.401-.308.641-.398a2.46 2.46 0 0 1 .859-.142c.15 0 .298.01.446.033a1.962 1.962 0 0 1 .981.449l-.155.237a.14.14 0 0 1-.052.052.15.15 0 0 1-.073.02.196.196 0 0 1-.099-.03 1.923 1.923 0 0 1-.157-.09 1.372 1.372 0 0 0-.215-.104 1.873 1.873 0 0 0-.295-.085 2.255 2.255 0 0 0-.407-.033 1.743 1.743 0 0 0-.618.106 1.337 1.337 0 0 0-.471.303c-.133.138-.235.3-.298.477a1.954 1.954 0 0 0 0 1.277c.07.18.179.345.32.482.132.132.291.235.468.304.204.066.42.092.635.076zm5.108-.061h1.75v.437H58.65v-3.832h.548l-.013 3.395zm3.571.436h-.548v-3.83h.548v3.832zm2.038-3.813a.28.28 0 0 1 .083.07l2.343 2.889a.972.972 0 0 1 0-.137v-2.855h.478v3.847h-.276a.24.24 0 0 1-.119-.021.314.314 0 0 1-.086-.073l-2.34-2.885v2.979h-.458V25.62h.285a.23.23 0 0 1 .09.018zm6.938-.018v.422H69.79v1.265h1.574v.406H69.79v1.308h1.942v.422h-2.506v-3.823h2.506zM14.303 1.954l24.335 6.541v22.922L14.305 24.88V1.954zM12.743 0v25.992l27.453 7.382V7.384L12.743 0z"
      ></path>
    <path d="M27.456 45.44L0 38.052v-25.99l27.456 7.385V45.44z" ></path>
    <path d="M13.198 1.66l24.017 6.459-10.214 9.672-24.02-6.462 10.217-9.67zM12.743 0L0 12.063l27.456 7.385 12.74-12.063L12.743 0zm16.259 43.978l11.194-10.6-11.194-3.013v13.613z" ></path>
  </symbol>
</svg>



</defs>
</svg>



